<?xml version="1.0" encoding="utf-8"?>
<!-- Generator: Adobe Illustrator 27.3.1, SVG Export Plug-In . SVG Version: 6.00 Build 0)  -->
<svg version="1.1" id="Capa_1" xmlns="http://www.w3.org/2000/svg" xmlns:xlink="http://www.w3.org/1999/xlink" x="0px" y="0px"
	 viewBox="0 0 1366 768" style="enable-background:new 0 0 1366 768;" xml:space="preserve">
<g>
	<g>
		<rect x="523.47" y="224.5" width="127.01" height="511"/>
		<path d="M649.98,225v510H523.97V225H649.98 M650.98,224H522.97v512h128.01V224L650.98,224z"/>
	</g>
	<g>
		<rect x="523.47" y="32.5" width="127.01" height="127.02"/>
		<path d="M649.98,33v126.02H523.97V33H649.98 M650.98,32H522.97v128.02h128.01V32L650.98,32z"/>
	</g>
	<g>
		<polygon points="716.71,735.5 793.01,686.04 842.53,609.73 842.53,735.5 		"/>
		<path d="M842.03,611.42V735H718.4l74.8-48.49l0.18-0.12l0.12-0.18L842.03,611.42 M843.03,608.04l-50.38,77.64L715.02,736h128.01
			V608.04L843.03,608.04z"/>
	</g>
</g>
</svg>
